{"title":"X-Art - Jenna - Double Day Dreams","uid":10462716,"size":252479748,"categoryP":"porn","categoryS":"movie_clips","magnet":"?xt=urn:btih:8fd904f42d6e673dee564fb7696dd1b4f5668232&amp;dn=X-Art+-+Jenna+-+Double+Day+Dreams&amp;tr=udp%3A%2F%2Ftracker.openbittorrent.com%3A80&amp;tr=udp%3A%2F%2Fopen.demonii.com%3A1337&amp;tr=udp%3A%2F%2Ftracker.coppersurfer.tk%3A6969&amp;tr=udp%3A%2F%2Fexodus.desync.com%3A6969","seeders":2,"leechers":3,"uploader":"athklym","files":-1,"time":1404154730,"description":" &lt;a href=&quot;http://bayimg.com/FApBpAaFA&quot; rel=&quot;nofollow&quot; target=&quot;_NEW&quot;&gt;http://bayimg.com/FApBpAaFA&lt;/a&gt;\n\n\n\nX-Art_Jenna_Double_Day_Dreams.mov\nFormat                                   : MPEG-4\nFormat profile                           : QuickTime\nCodec ID                                 : qt  \nFile size                                : 241 MiB\nDuration                                 : 13mn 16s\nOverall bit rate mode                    : Variable\nOverall bit rate                         : 2 534 Kbps\nWriting application                      : Lavf54.22.100\n\nVideo\nID                                       : 1\nFormat                                   : MPEG-4 Visual\nFormat profile                           : Simple@L1\nFormat settings, BVOP                    : No\nFormat settings, QPel                    : No\nFormat settings, GMC                     : No warppoints\nFormat settings, Matrix                  : Default (H.263)\nCodec ID                                 : 20\nDuration                                 : 13mn 16s\nBit rate mode                            : Variable\nBit rate                                 : 2 422 Kbps\nMaximum bit rate                         : 3 500 Kbps\nWidth                                    : 960 pixels\nHeight                                   : 540 pixels\nDisplay aspect ratio                     : 16:9\nFrame rate mode                          : Constant\nFrame rate                               : 23.976 fps\nColor space                              : YUV\nChroma subsampling                       : 4:2:0\nBit depth                                : 8 bits\nScan type                                : Progressive\nCompression mode                         : Lossy\nBits/(Pixel*Frame)                       : 0.195\nStream size                              : 230 MiB (96%)\nWriting library                          : Lavc54.46.100\nLanguage                                 : English\n\nAudio\nID                                       : 2\nFormat                                   : AAC\nFormat/Info                              : Advanced Audio Codec\nFormat profile                           : LC\nCodec ID                                 : 40\nDuration                                 : 13mn 16s\nDuration_LastFrame                       : -17ms\nBit rate mode                            : Variable\nBit rate                                 : 108 Kbps\nMaximum bit rate                         : 128 Kbps\nChannel(s)                               : 2 channels\nChannel positions                        : Front: L R\nSampling rate                            : 48.0 KHz\nCompression mode                         : Lossy\nStream size                              : 10.2 MiB (4%)\nLanguage                                 : English\n\n","torrent":{"xt":"urn:btih:8fd904f42d6e673dee564fb7696dd1b4f5668232","amp;dn":"X-Art+-+Jenna+-+Double+Day+Dreams","amp;tr":["udp%3A%2F%2Ftracker.openbittorrent.com%3A80","udp%3A%2F%2Fopen.demonii.com%3A1337","udp%3A%2F%2Ftracker.coppersurfer.tk%3A6969","udp%3A%2F%2Fexodus.desync.com%3A6969"],"infoHash":"8fd904f42d6e673dee564fb7696dd1b4f5668232","infoHashBuffer":{"type":"Buffer","data":[143,217,4,244,45,110,103,61,238,86,79,183,105,109,209,180,245,102,130,50]},"announce":[],"urlList":[]}}